<?xml version="1.0" encoding="utf-8" ?><svg xmlns="http://www.w3.org/2000/svg" xmlns:xlink="http://www.w3.org/1999/xlink" width="2440" height="746" viewBox="0 0 2440 746"><path fill="white" d="M0 0L2440 0L2440 746L0 746L0 0Z"/><defs><linearGradient id="gradient_0" gradientUnits="userSpaceOnUse" x1="266.28943" y1="673.02045" x2="345.17224" y2="121.7304"><stop offset="0" stop-color="#007DFA"/><stop offset="1" stop-color="#00FCFD"/></linearGradient></defs><path fill="url(#gradient_0)" d="M376.47 125.201C377.284 125.261 378.098 125.332 378.91 125.414C397.63 127.276 410.761 145.555 402.617 163.602C398.84 171.973 392.748 173.503 386.039 178.983C384.987 181.758 385.247 182.948 385.487 185.93C387.371 187.475 394.004 187.073 397.003 187.51C428.297 192.252 454.879 211.036 469.465 238.981C484.16 267.133 480.418 297.072 480.447 328.01L480.502 423.524L480.507 509.472C480.499 541.439 488.077 584.297 451.007 597.212C451.147 624.721 443.81 653.245 411.625 656.182C403.242 674.467 389.808 687.88 368.711 689.152C356.743 689.915 344.975 685.803 336.086 677.753C326.077 668.737 322.513 658.851 321.866 645.82C295.878 629.738 288.117 615.134 296.688 585.097C295.082 583.772 293.54 582.372 292.068 580.9C263.597 552.368 270.191 502.1 270.349 462.922L241.559 462.916C235.21 475.902 224.855 486.793 208.767 481.949C201.382 479.67 195.211 474.542 191.618 467.7C175.139 436.439 221.953 407.385 241.705 447.835L270.331 447.831L270.354 403.001L189.474 403.036C185.462 411.145 181.727 416.476 173.469 420.753C161.606 426.897 143.878 419.078 138.336 407.563C135.288 401.09 134.94 393.67 137.37 386.94C140.017 379.617 145.526 373.683 152.634 370.501C169.433 363.148 182.564 372.94 189.141 387.975C216.209 388.142 243.279 388.094 270.346 387.829L270.365 328.027L191.86 328.079C187.284 335.276 183.021 340.744 174.682 343.974C168.566 346.276 161.774 345.975 155.885 343.142C148.99 339.841 143.645 333.994 140.975 326.83C128.669 293.303 180.225 272.552 193.012 312.936L270.376 312.93L270.369 291.04L214.517 291.038L175.255 251.776C141.459 269.417 116.795 224.588 146.135 206.333C152.614 202.318 160.445 201.107 167.833 202.976C186.805 207.622 189.687 224.415 185.343 240.621L220.839 276.159L270.383 276.152C271.672 267.38 272.962 261.578 275.08 253.016L256.758 252.862C238.285 237.049 213.677 212.241 195.463 194.977C187.983 198.447 181.017 200.357 172.837 198.101C165.828 196.179 159.907 191.476 156.448 185.083C152.905 178.65 152.066 171.073 154.116 164.02C156.048 157.365 160.597 151.778 166.722 148.536C189.878 136.054 213.586 157.079 204.881 183.01L262.739 238L281.87 237.998C290.793 221.219 294.877 220.618 305.108 209.045C302.59 197.218 287.729 209.645 278.838 206.322C270.762 203.304 266.711 202.081 261.941 194.091C258.156 187.784 257.034 180.231 258.82 173.096C262.635 158.193 276.321 149.251 291.529 153.477C298.773 155.515 304.895 160.378 308.519 166.974C313.299 175.872 312.316 182.151 309.617 191.182L318.562 199.774C331.795 192.728 346.193 187.147 361.391 187.052C364.143 187.035 366.293 186.805 368.995 186.256C370.25 183.768 369.659 182.933 369.453 179.699C365.783 172.985 354.188 174.823 350.832 157.555C349.471 150.709 350.936 143.604 354.895 137.855C360.527 129.612 367.089 126.844 376.47 125.201Z"/><path fill="white" d="M285.309 328.027L465.582 328.028L465.578 390.739C456.569 406.14 446.764 422.304 438.381 437.945C426.384 425.065 416.146 419.567 399.06 416.092L399.057 364.38C409.313 364.262 439.862 368.521 444.198 358.204C444.219 350.985 440.598 349.636 433.968 349.474C421.641 349.172 409.073 349.427 396.75 349.516C392.451 349.344 389.74 349.144 386.397 351.703C382.155 356.699 383.946 405.46 383.999 416L366.988 415.994C366.913 396.479 367.997 376.337 366.458 356.741C365.594 345.743 336.718 350.128 328.451 349.193C322.072 348.472 309.35 349.588 306.16 356.055C306.01 358.61 306.486 359.632 308.126 361.511C310.678 364.434 313.071 364.429 316.677 364.439C328.438 364.472 340.19 364.426 351.946 364.381L351.943 416.039C333.386 420.029 325.975 424.39 312.554 437.877C305.423 423.939 293.43 404.681 285.317 390.696L285.309 328.027Z"/><path fill="white" d="M395.596 430.526C409.473 433.825 419.104 438.417 428.013 449.811C430.535 452.577 435.954 460.175 440.305 458.192C447.733 454.806 451.513 444.767 455.766 437.938C459.017 432.72 462.397 426.33 465.577 420.725L465.598 506.923C465.6 521.82 465.907 537.423 465.389 552.285C464.895 566.474 461.322 572.828 451.004 581.967L450.999 543.5C451.025 542.166 451.042 540.833 451.052 539.499C451.242 512.143 446.579 486.706 427.209 466.043C403.722 440.165 349.064 442.91 325.315 466.283C305.418 485.864 310.883 532.721 311.005 559.904L303.402 570.956C281.478 548.694 285.205 516.339 285.248 487.586L285.321 422.553C291.262 426.284 300.407 453.058 308.752 457.86C315.861 461.952 319.107 454.484 322.535 449.83C330.773 438.647 341.51 433.833 354.723 430.768C370.784 438.89 379.94 439.809 395.596 430.526Z"/><path fill="white" d="M395.642 498.387L397.629 498.421C398.782 500.844 398.268 606.142 398.274 617.879C369.732 626.185 358.811 645.095 361.847 674.418C355.414 671.973 352.408 670.956 346.755 667.142C346.156 666.588 345.568 666.023 344.99 665.447C316.575 637.259 363.506 606.849 365.708 586.177C368.519 559.796 367.057 525.908 366.994 498.704C378.521 500.704 384.173 500.525 395.642 498.387Z"/><path fill="white" d="M372.285 463.548C387.881 461.562 400.055 463.697 412.591 473.315C400.107 480.62 382.616 490.307 368.087 483.178C361.083 479.741 351.22 471.614 343.462 478.142C340.956 484.991 347.168 489.714 351.943 492.938C351.793 520.419 354.155 558.457 349.874 585.254C348.956 591.005 343.573 597.119 339.635 601.308C331.596 610.486 327.501 618.152 324.051 629.74C297.477 608.442 308.637 588.949 326.011 565.085C326.07 543.167 321.551 496.311 333.735 479.912C344.438 465.507 357.107 465.902 372.285 463.548Z"/><path fill="white" d="M385.077 201.981C400.232 201.145 419.953 208.486 431.847 217.631C452.44 233.465 461.446 251.206 465.227 276.167L385.083 276.167L385.077 201.981Z"/><path fill="white" d="M285.31 291.041L465.592 291.038L465.582 312.937L285.307 312.938L285.31 291.041Z"/><path fill="white" d="M418.799 479.702C438.923 495.402 435.764 550.652 435.607 574.568C435.47 595.572 438.817 617.693 425.452 635.049C422.101 637.642 417.802 639.603 413.989 641.535C412.757 591.746 413.98 540.264 414.595 490.43C414.615 488.835 418.735 486.546 418.799 479.702Z"/><path fill="white" d="M357.044 202.406C358.88 201.953 367.55 202.013 369.987 201.99L369.986 276.159L346.068 276.123L346.038 225.774C341.422 220.945 335.045 215.212 330.109 210.508C340.259 206.069 346.096 203.933 357.044 202.406Z"/><path fill="white" d="M316.965 218.902C321.665 223.241 326.324 227.624 330.94 232.051L330.939 276.159L300.5 276.17L285.554 276.163C289.411 249.918 297.946 236.37 316.965 218.902Z"/><path fill="white" d="M397.089 633.955L398.007 635.106C400.82 652.703 392.095 663.957 377.371 672.147C372.586 654.607 381.613 641.278 397.089 633.955Z"/><path fill="white" d="M280.408 168.571C286.544 166.117 293.511 169.078 296.003 175.199C298.495 181.32 295.578 188.305 289.473 190.836C283.313 193.389 276.251 190.441 273.737 184.265C271.222 178.089 274.216 171.046 280.408 168.571Z"/><path fill="white" d="M176.589 160.543C182.955 158.628 189.666 162.246 191.565 168.617C193.464 174.987 189.83 181.689 183.455 183.573C177.101 185.45 170.427 181.831 168.534 175.482C166.642 169.133 170.245 162.45 176.589 160.543Z"/><path fill="white" d="M376.376 140.538C382.857 139.85 388.705 144.456 389.554 150.918C390.402 157.38 385.942 163.34 379.503 164.348C375.193 165.023 370.857 163.308 368.175 159.869C365.492 156.429 364.885 151.806 366.589 147.791C368.292 143.775 372.039 140.999 376.376 140.538Z"/><path fill="white" d="M156.705 217.495C160.868 216.103 165.459 217.094 168.677 220.08C171.896 223.066 173.228 227.57 172.152 231.826C171.076 236.081 167.763 239.411 163.512 240.508C157.25 242.124 150.832 238.49 148.998 232.288C147.163 226.086 150.571 219.545 156.705 217.495Z"/><path fill="white" d="M161.841 383.542C168.336 382.961 174.105 387.674 174.831 394.154C175.558 400.634 170.975 406.508 164.513 407.379C160.202 407.961 155.914 406.163 153.307 402.681C150.699 399.199 150.181 394.578 151.953 390.605C153.724 386.632 157.508 383.929 161.841 383.542Z"/><path fill="white" d="M212.831 443.514C219.33 442.213 225.652 446.431 226.945 452.932C228.239 459.433 224.013 465.75 217.51 467.035C211.019 468.318 204.715 464.101 203.424 457.611C202.133 451.121 206.343 444.812 212.831 443.514Z"/><path fill="white" d="M162.42 306.479C166.536 305.123 171.065 306.094 174.263 309.02C177.461 311.945 178.831 316.369 177.845 320.59C176.86 324.811 173.673 328.172 169.51 329.379C163.232 331.199 156.653 327.654 154.72 321.411C152.787 315.167 156.212 308.525 162.42 306.479Z"/><path fill="#1B2734" d="M1224.68 333.949L1264 333.95L1264 480.257C1258.51 480.324 1231.6 481.355 1228.63 478.999L1228.61 405.82C1217.46 430.515 1205.27 455.664 1193.73 480.256L1154.12 480.256L1119.09 405.777L1119.08 480.256L1084 480.256L1084 333.95L1122.93 333.95C1140.25 369.12 1156.69 405.522 1173.9 440.922C1190.43 409.637 1208.82 366.704 1224.68 333.949Z"/><path fill="#1B2734" d="M1355.07 331.638C1396.69 329.807 1431.97 361.949 1434.02 403.562C1436.06 445.175 1404.1 480.619 1362.5 482.874C1320.59 485.146 1284.84 452.902 1282.78 410.988C1280.72 369.074 1313.15 333.482 1355.07 331.638Z"/><path fill="white" d="M1353.35 364.515C1376.84 361.85 1398.07 378.662 1400.86 402.137C1403.65 425.612 1386.95 446.931 1363.49 449.843C1339.85 452.778 1318.34 435.926 1315.53 412.275C1312.72 388.624 1329.68 367.2 1353.35 364.515Z"/><path fill="#1B2734" d="M1996.16 333.947L2035.5 333.949C2041.52 345.594 2050.79 369.223 2056.25 381.943L2098.56 480.256L2060.74 480.256L2051.12 457.838L2036.5 457.838L1980.88 457.838L1971.13 480.256L1933.66 480.256C1952.2 433.207 1976.06 380.938 1996.16 333.947Z"/><path fill="white" d="M2016.16 374.752C2021.7 385.034 2033.97 416.692 2039 428.695L2016.5 428.695L1993.08 428.695L2016.16 374.752Z"/><path fill="#1B2734" d="M661.675 333.949L701.133 333.95C706.47 348.572 716.93 370.869 723.294 385.684L764.09 480.256L725.92 480.256C723.93 474.345 719.245 463.917 716.731 457.838L700.5 457.838L646.071 457.838C643.034 465.381 639.831 472.855 636.463 480.256L599.215 480.256C604.051 466.509 614.085 444.979 620.012 431.118L661.675 333.949Z"/><path fill="white" d="M681.373 374.754C684.695 378.626 701.024 420.743 704.274 428.695L682.5 428.695L658.548 428.695L681.373 374.754Z"/><path fill="#1B2734" d="M915.383 333.947L951.04 333.95L951.04 397.875C968.864 378.456 989.569 354.204 1006.56 333.949L1051.33 333.95C1034.64 353.696 1017.83 373.332 1000.89 392.857C1013.81 411.796 1027.26 430.686 1040.42 449.48L1061.94 480.257L1015.91 480.257L976.146 420.104C967.822 428.731 959.195 438.523 951.041 447.418L951.041 480.259L915.382 480.256L915.383 333.947Z"/><path fill="#1B2734" d="M1600.03 333.962L1712.13 333.95L1712.13 366.846L1635.32 366.847L1635.32 391.9L1699.57 391.9L1699.57 422.692L1641.75 422.691C1640.91 422.691 1637.16 422.883 1636.8 423.31C1633.84 426.841 1635.23 442.202 1635.32 447.708L1712.13 447.713L1712.13 480.256L1600.03 480.256L1600.03 333.962Z"/><path fill="#1B2734" d="M825.56 331.441C853.272 331.167 880.4 343.932 885.745 373.812C886.236 376.556 886.373 377.305 885.123 379.632C879.589 381.048 858.363 380.302 851.569 380.241C839.566 344.017 780.412 374.129 815.512 386.179C842.179 395.334 891.29 398.635 889.876 438.405C888.551 475.692 852.688 483.509 822.142 482.836C789.294 478.146 769.887 462.692 765.536 429.089L800.865 429.088C803.64 436.517 803.271 437.214 809.957 444.567C819.268 454.805 853.025 457.04 854.331 439.362C855.046 429.694 833.448 424.295 824.553 422.769C785.136 416.011 748.779 392.137 778.909 350.45C787.666 338.448 809.831 332.446 825.56 331.441Z"/><path fill="#1B2734" d="M1793.61 331.446C1825.09 329.823 1851.52 347.763 1854.59 380.241L1820.16 380.241C1814.27 366.707 1809.3 365.136 1795.47 362.996C1783.28 361.109 1764.18 376.347 1776.12 382.699C1797.69 394.173 1828.74 392.503 1847.35 411.338C1854.38 418.524 1858.28 428.213 1858.16 438.269C1857.57 475.333 1820.12 483.491 1790.36 482.851C1757.08 478.164 1738.38 462.763 1733.51 429.088L1768.59 429.138C1772.13 438.22 1775.6 444.708 1784.89 449.111C1795.13 453.967 1811.31 454.141 1819.98 446.08C1826.38 440.315 1820.63 432.357 1814.51 429.601C1792.68 419.77 1767.37 421.085 1748.13 404.604C1732.48 391.198 1732.59 366.573 1746.28 351.583C1759.47 337.131 1774.44 332.696 1793.61 331.446Z"/><path fill="#1B2734" d="M1510.54 331.436C1544.72 330.508 1565.12 347.447 1571.74 380.232L1537.07 380.236C1528.24 363.599 1513.65 358.52 1495.95 366.819C1488.19 370.458 1485.25 379.129 1494.61 383.61C1517.12 394.382 1545.94 393.408 1564.61 411.974C1579.38 427.169 1576.62 454.399 1561.04 468.063C1544.96 482.162 1526.83 483.435 1506.76 482.764C1473.8 478.377 1454.44 462.635 1450.12 429.088L1485.19 429.088C1487.15 434.404 1488.39 438.268 1492.49 442.746C1502.74 453.915 1524.59 456.193 1536.22 446.259C1537.7 444.998 1539.4 441.625 1539.03 439.721C1536.86 427.95 1520.44 425.523 1510.78 423.152C1494.74 419.211 1477.75 415.701 1464.69 404.771C1448.26 391.012 1449.38 364.671 1463.93 349.88C1476.57 337.033 1493.03 332.476 1510.54 331.436Z"/><path fill="#1B2734" d="M534.608 200.002L551.046 200L551.046 614.22L534.608 614.217L534.608 200.002Z"/><path fill="#1B2734" d="M2122 333.949L2157.92 333.949L2157.92 480.231L2122 480.256L2122 333.949Z"/><path fill="#1B2734" d="M1890.77 441.603C1898.13 439.517 1906.04 441.569 1911.46 446.969C1916.88 452.369 1918.96 460.274 1916.9 467.642C1914.84 475.009 1908.96 480.689 1901.52 482.494C1890.33 485.213 1879.02 478.468 1876.09 467.326C1873.15 456.183 1879.68 444.745 1890.77 441.603Z"/></svg>